<svg version="1.0" xmlns="http://www.w3.org/2000/svg" width="720" height="720" viewBox="0 0 540 540"><path d="M0 270v270h540V0H0v270zM537.4 2.6C538.8 4 539 30 539 267.9c0 145.1-.3 265.2-.6 267l-.6 3.1H2.3l-.5-2.8c-.4-2.2-.3-231.6.1-478.4L2 2l245.7-.3c135.2-.1 255.3-.3 267-.5 18.1-.2 21.4 0 22.7 1.4z"/><path d="M345.6 32.8c-.2.4-.3 100.3-.3 222 .2 220.5.2 221.2 2.2 221.2s2-.7 2.2-222c.1-216.2.1-222-1.7-222-1 0-2.1.3-2.4.8zM197 47c0 4.3.3 5 2 5s2-.7 2-5-.3-5-2-5-2 .7-2 5zm0 12.5c0 5.8.2 6.5 2 6.5s2-.7 2-6.5-.2-6.5-2-6.5-2 .7-2 6.5zM352 58c0 .5 1.1 1 2.5 1s2.5-.5 2.5-1c0-.6-1.1-1-2.5-1s-2.5.4-2.5 1zM203 69v11h5V58h-5v11zm136.7-4.4c-.4.4-.7 5.4-.7 11.1 0 9.4.2 10.4 1.8 10.1 1.5-.3 1.7-1.6 1.7-10.7 0-9.7-.8-12.5-2.8-10.5zM326 66c0 .5.6 1 1.4 1 .8 0 1.8-.5 2.1-1 .3-.6-.3-1-1.4-1-1.2 0-2.1.4-2.1 1zm-129 1.7c0 .5.1 48.5.2 106.8.2 58.3.1 147.5-.1 198.2-.3 70.7-.1 92.3.8 92.3s1.1-4.6.9-18c-.2-9.9 0-18 .4-18s.9 8.2 1.1 18.2c.1 10.1.3-71.4.5-181C201 67.6 201 67 199 67c-1.1 0-2 .3-2 .7zm135.7 21c-.4 10.4-.5 92.4-.3 182.3.3 140.4.6 163.5 1.8 163.8 1.2.2 1.5-14.6 1.9-104.5.4-106.1.4-221.4-.1-246.6-.2-9.9-.6-13.7-1.5-13.7s-1.4 5.1-1.8 18.7zM440 75.5c0 5.2.1 5.5 2.5 5.5s2.5-.3 2.5-5.5-.1-5.5-2.5-5.5-2.5.3-2.5 5.5zm-81 .9c0 3.5.4 4.5 2 4.9 1.1.3 2 .1 2-.3 0-.5-.8-1.1-1.7-1.3-1.4-.4-1.2-.5.5-.6 1.8-.1 2.2-.7 2.2-3.6 0-3.1-.3-3.5-2.5-3.5-2.3 0-2.5.4-2.5 4.4zm74-.4c0 .5 1.1 1 2.5 1s2.5-.5 2.5-1c0-.6-1.1-1-2.5-1s-2.5.4-2.5 1zm-80.5 195.5v191l2.3.3 2.2.3-.1-185.8c-.1-102.2-.4-186.6-.6-187.6-.3-1.1-1.1-1.6-1.8-1.3-1 .4-1.5-.7-1.7-3.7-.2-2.3-.3 81.7-.3 186.8zM326 90.3c-.1 4 0 301.8 0 347.4 0 6.3.3 8.3 1.3 8.3 2.4 0 2.6-20.3 2.4-193.2-.2-157.8-.3-166.7-1.9-167.2-1.5-.3-1.8.3-1.8 4.7zm40 8.3c0 9.8.3 12.3 1.5 12.7 2.2.9 2.8-.8 3.3-10.9.6-11.1 0-14-2.8-14-1.9 0-2 .6-2 12.2zm-264 157v168.5l2.1-.3 2.2-.3.1-168.2.1-168.3h-4.4l-.1 168.6zM434 92.2c-.2 24.8-.1 355.2.1 360.8.1 4.1.4 6 .6 4.2.2-1.7.8-3.2 1.4-3.2 1.4 0 1.1-4.8-.3-5.3-.8-.3-.6-.6.5-.6 1.6-.1 1.7-9.4 1.7-180.1 0-179.3 0-180-2-180-1.7 0-2 .7-2 4.2zm-74.1 142c-.1 79.9-.3 150.6-.5 157-.1 7.9.1 11.8.8 11.8.8 0 .9 5.6.4 18.4-.5 14.5-.4 18.5.6 18.9.8.3.6.6-.4.6-1.6.1-1.8 1.3-1.8 10.6 0 10.2.1 10.5 2.3 10.5h2.2V286.7c0-96.3-.4-175.8-.8-176.4-.4-.7-.5-5.8-.1-11.3.6-8.9.5-10-1-10s-1.6 11.2-1.7 145.2zM441 91.8c0 1.5 0 71.3-.1 155.2-.1 180.6-.3 162 1.6 162 1.1 0 1.5-1.1 1.5-4.3.7-119.3.9-309.7.5-311.7-.9-3.9-3.5-4.8-3.5-1.2zm-304.2-1.1c.6.2 1.8.2 2.5 0 .6-.3.1-.5-1.3-.5-1.4 0-1.9.2-1.2.5zm-47.5 6.8c-.8 5.1-1 35.7-.7 113.5.4 113.9.4 195.9.1 210.5-.2 8.6-.1 9 2.1 9.3 2.1.3 2.2.1 2.2-8.2 0-7.2-.3-8.6-1.6-8.6s-1.5-.6-.9-2.8c1.1-4.1 1.3-22.2 2-173.5.5-92.3.3-140.2-.3-141-.6-.7-1.2-2.3-1.4-3.7-.2-1.5-.8.4-1.5 4.5zm6.7-1c0 2.5.5 4.5 1.1 4.5.5 0 .7-.5.4-1-.3-.6-.1-1 .4-1 .6 0 1.1-1.6 1.1-3.5 0-2.4-.5-3.5-1.5-3.5-1.1 0-1.5 1.2-1.5 4.5zm13.9-3.3c0 .2-.2 80.6-.4 178.8-.1 98.2 0 176.9.4 175 .7-3.5 1.4-3 2.4 1.5.7 3.2 1.2-241.5.7-351.8 0-2.6-.4-3.7-1.5-3.7-.8 0-1.5.1-1.6.2zm398 .3c-.4.3-.4 1.7-.1 3 .3 1.9 1.1 2.5 2.9 2.5 2.1 0 2.4-.4 2.1-2.8-.2-1.8-1-2.8-2.3-3-1.2-.2-2.3 0-2.6.3zm-364.9 6c0 2.8.4 3.5 2 3.5s2-.7 2-3.5-.4-3.5-2-3.5-2 .7-2 3.5zm.2 7c0 1.6.2 2.2.5 1.2.2-.9.2-2.3 0-3-.3-.6-.5.1-.5 1.8zm3 0c0 1.6.2 2.2.5 1.2.2-.9.2-2.3 0-3-.3-.6-.5.1-.5 1.8zm301.5.2c-1 1-.8 14.6.2 16.2.5.8 1.6 1.1 2.5.8 1.3-.5 1.6-2.3 1.6-9.2 0-7.6-.2-8.5-1.8-8.5-1 0-2.2.3-2.5.7zm-48.3 152.5c.2 150.7.2 152.3 2.1 152.6 2 .3 2-1.1 2.3-152.3l.3-152.5h-4.9l.2 152.2zM264.6 120.7c-.4 7.1-.6 73-.4 146.5.3 133.6.3 133.8 2.3 133.8 2 0 2-.1 1.8-139.7-.1-76.9-.2-142.8-.2-146.6-.1-5-.5-6.7-1.5-6.7s-1.5 2.9-2 12.7zM136.2 279.5L136 450h2.3c2.3 0 2.3-.1 1.9-8.3-.5-9.6-1.2-11.6-1.2-3.4 0 3.1-.4 5.7-1 5.7s-1-2.7-1-6c0-4.7.3-6 1.5-6 1.9 0 1.9-8.6 1.5-315.8 0-6.2-.2-7.2-1.7-7.2-1.7 0-1.8 8.9-2.1 170.5zm290.5-169.8c-.2.5-.3 67.8-.3 149.8.1 148.2.1 149 2.1 149.3 2 .3 2-.4 2.3-149.8.3-149.1.3-150-1.7-150-1.1 0-2.2.3-2.4.7zm75 2.9c-1 1.1-.9 16.2.2 16.8.5.4 1.7.3 2.5 0 2.4-.9 1.9-16.7-.4-17.2-.9-.1-1.9 0-2.3.4zm-133.5 2.9c0 1.6.2 2.2.5 1.2.2-.9.2-2.3 0-3-.3-.6-.5.1-.5 1.8zm4.5-.8c-.3.5-.4 65.8-.3 145.3l.1 144.5 2 .3 2.1.3V262c0-136.7-.1-143-1.8-143-1 0-1.8-.7-1.8-1.5s.9-1.5 2-1.5 2-.5 2-1c0-1.2-3.7-1.4-4.3-.3zm8.1 0c.7.3 1.6.2 1.9-.1.4-.3-.2-.6-1.3-.5-1.1 0-1.4.3-.6.6zm39.2 7.1c0 4.3.3 8.2.6 8.5.4.3 1.5.2 2.6-.4 1.6-.9 1.8-2 1.6-8.2-.3-6.6-.5-7.2-2.5-7.5-2.2-.3-2.3-.1-2.3 7.6zm-303.1-6.1c-.1.5 0 3.6.1 7.1.1 3.8-.4 6.9-1.1 7.8-.9 1.2-1 20.4-.3 89.2 1 97.4 1 179 0 192.7-.4 4.9-.3 8.5.1 8 .4-.6 1.4-1 2.1-1 1.1 0 1.4-26.4 1.9-144.8.4-103 .2-144.7-.6-144.7-.6 0-.9-.6-.6-1.3.2-.6.6-4 1-7.5.5-5.2.4-6.2-1-6.2-.8 0-1.6.3-1.6.7zm25.4.9c-.3 1-.2 37.7.3 81.8.4 44.1.6 111.6.4 150.1-.7 99.7-.9 88.9 1.8 89.3 2.1.3 2.2.1 2.2-9.2 0-8.1-.2-9.4-1.5-9-1 .4-1.5 0-1.5-1.5 0-2.2 1.6-2.9 2.2-1.1.2.6.4-67.1.5-150.5.2-149.9.1-151.5-1.8-151.5-1.1 0-2.2.7-2.6 1.6zm1.4 15.1c-.2 2.1-.4.6-.4-3.2 0-3.9.2-5.5.4-3.8.2 1.8.2 5 0 7zm2 261.5c-.1 4-.3 1-.3-6.7s.1-11 .3-7.3c.2 3.7.2 10 0 14zm91.6-134c.2 141.9.3 143.3 2.2 143.6 2 .3 2-.9 2-143.3V116H237l.3 143.2zm169.6-18.5c0 68.1-.2 137.6-.5 154.6l-.5 30.7h5l.1-154.5c0-154.3 0-154.5-2-154.5s-2 .3-2.1 123.7zM508 281v164.7c0 .5 1 .8 2.3.8 1.9 0 2.2-.5 2-4 0-2.2-.1-10.5 0-18.5s.1-80.3.2-160.7V117H508v164zM191 121.2c0 1.3-.2 64.7-.4 141-.3 127.8-.2 138.7 1.3 139.1 1.3.4 1.3.5-.2.6-1.6.1-1.8.9-1.5 6.8.3 5.9.6 6.8 2.2 6.8 1.8 0 1.9-3.4 1.8-145.5-.1-80-.1-146.7-.1-148.3-.1-3.3-3.1-3.8-3.1-.5zm222.9 138.5c-.1 76.4-.3 142.7-.5 147.5-.2 6.9 0 8.8 1.1 8.8.8 0 1.6-.4 1.9-.8.8-1.3 1.7-264.1 1-280-.5-10.9-1-14.2-2-14.2-1.2 0-1.4 22.7-1.5 138.7zm-284.9-.2V397h4.5V122H129v137.5zm74.9-134.3c-.1 1.3-.3 70.7-.5 154.3-.4 166.5.1 213.5 2.1 213.5 2.2 0 2.5-25.1 2-199-.4-152.6-.6-170.5-2-170.8-1-.2-1.6.5-1.6 2zm54.1-.2c0 1.1.5 2 1 2 .6 0 1-.9 1-2s-.4-2-1-2c-.5 0-1 .9-1 2zm14 5.7c-.1 51.4-.2 273-.1 276.5.1 3.3.5 4.8 1.5 4.8.9 0 1.5-2 1.9-6.8.4-4.7.1-273.9-.3-281.5 0-.4-.7-.7-1.5-.7-1.2 0-1.5 1.5-1.5 7.7zm182 131.8c0 132.2.1 139.5 1.8 139.5 1.6 0 1.7-7.4 2-139.5l.3-139.5H454v139.5zm-223.7-130c0 3.8.2 5.3.4 3.2.2-2 .2-5.2 0-7-.2-1.7-.4-.1-.4 3.8zm48.2 10.1c-.7 15.5-.4 250.2.3 244.1.4-3.5 2-3.5 2.4 0 .2 1.6.3-4.6.3-13.7 0-107.9.1-233.1.2-239.3.1-5.8-.1-7.7-1.2-7.7-1 0-1.5 3.8-2 16.6zm108.3 120.1c-.2 75.3-.1 138.3.1 140 .2 2.3.8 3.3 2 3.3 1.5 0 1.7-1.1 1.5-8.2-.1-4.6-.1-41.4-.1-81.8.2-77.6.1-167.9-.1-181.8-.1-6.6-.4-8.2-1.6-8.2-1.4 0-1.6 15.2-1.8 136.7zM123.2 127.9c-1.8 1.1-.5 14.1 1.4 14.1 1 0 1.4-1.7 1.6-6 0-3.3.1-6.5.2-7.2.1-1.5-1.5-2-3.2-.9zm134.3 6.3c-.4 3.5-.5 8.1-.3 10.3.4 3.4.5 3.1.6-1.6.2-4.8.5-5.7 2.3-6.2 1.7-.5 2-1.2 1.7-4.4-.2-2.6-.8-3.9-2-4.1-1.3-.3-1.8.9-2.3 6zm-47.3 126c-.1 72.2.1 130.7.4 130 .3-.6 1.2-1.2 2-1.2 1.2 0 1.4-17.8 1.4-124.8 0-68.6.3-127.1.6-130 .7-5.1.6-5.2-1.9-5.2h-2.5v131.2zm169.8-35c0 53-.1 118-.3 144.6l-.4 48.2h2.4c1.4 0 2.3-.6 2.3-1.5 0-.8-.7-1.5-1.5-1.5-1.8 0-2-2.7-.2-3.3.9-.3 1.2-29.5 1.2-141.5.1-134.9 0-141.2-1.7-141.2s-1.8 4.5-1.8 96.2zm115.2 43c.2 105.3.6 135.3 1.5 135.3 1 0 1.3-27.3 1.8-122 .5-127.1.2-148.5-2.1-148.5-1.2 0-1.4 21.8-1.2 135.2zm-325-131c.2 1.3.9 2.3 1.7 2.3.8 0 1.6-1 1.7-2.3.3-1.7-.1-2.2-1.7-2.2-1.5 0-2 .5-1.7 2.2zm115.2-.9c-.3.8-.4 4.1-.2 7.3.2 4.4.7 5.9 1.8 5.9 1.2 0 1.5-1.4 1.5-6.9 0-4.7-.4-7.1-1.2-7.3-.7-.3-1.5.2-1.9 1zm6 0c-.2.7-.3 57.3-.2 125.7.3 123.6.3 124.5 2.3 124.8 2 .3 2-.3 2-125.8 0-120.4-.1-126-1.8-126-1 0-2 .6-2.3 1.3zm101.6 5.1c0 6.5 1 8.6 3.3 6.8.8-.7 1.1-3.2.9-7.1-.3-5.2-.7-6.1-2.3-6.1-1.7 0-1.9.8-1.9 6.4zm-53.3-4.8c-.4.4-.7 73.6-.7 162.6 0 161.2 0 161.8 2 161.8s2-.5 1.8-162.2c-.2-113.3-.6-162.2-1.4-162.5-.5-.2-1.3 0-1.7.3zm-318.5 6.1c.1 4.3.2 4.8.5 2 .2-2 .8-3.7 1.4-3.7.5 0 1 1.7 1 3.7.2 3.5.2 3.4.9-1.2.8-5.8.6-6.5-2.1-6.5-1.7 0-1.9.7-1.7 5.7zm74.5 9c-.4 7.6-.7 73.5-.7 146.6V431h5.3l-.6-39.2c-.4-21.5-.7-87.4-.7-146.5 0-89.2-.2-107.3-1.3-107.3s-1.5 3.2-2 13.7zm74.3.8c-1.1 9.2-1.1 23.8-.4 73.3.5 33.9.9 82.5.9 108 0 25.4.2 46.2.6 46.2 1.5 0 1.9-20.4 2.5-118.2.6-96.4.3-120.8-1.5-120.8-.4 0-1.4 5.2-2.1 11.5zm54.6-9.9c-.9 2.4-.3 253.5.7 252.1.5-.9.9-.9 1.5 0 .4.7.8-55.9.8-125.9-.1-124.2-.3-133.2-3-126.2zm94 22.6c-.5 19-.2 195.8.3 215.5.1 3.1.5 4.3 1.6 4.3 1.3 0 1.5-3.1 1.5-22.3 0-12.2.1-62 .3-110.7.5-98.1.3-111-1.7-111-1.1 0-1.5 5.2-2 24.2zM231 148.5c0 4.9.3 6.5 1.4 6.5 1.9 0 2.6-2.2 2.6-8.1 0-4.2-.3-4.9-2-4.9-1.8 0-2 .7-2 6.5zm-147.1-4.8c-1.4.3-1.7 2.4-2.1 11.6-.3 6.2 0 12.8.5 14.7.6 2.2.7 16.8.3 39-.6 33-.6 108-.1 156 .2 13.9-.1 21-.9 21.9-.8 1.1-.8 1.3.2.7.9-.5 1.2.3 1.2 2.8s.4 3.6 1.5 3.6c1.3 0 1.5-14.6 1.5-125.5 0-69-.1-125.4-.2-125.4-.2.1-1 .3-1.9.6zm221.7 5.5c-.3 2.4-.4 57.8-.1 123.3.5 100.4.8 119 2 119.3 1.1.3 1.3-3 1.2-19.5-.1-10.9-.1-62.8.1-115.3.3-123.4.5-112-1.2-112-.9 0-1.6 1.6-2 4.2zm-54 0c-.3 1.8-.3 52.3-.1 112.3.4 84.7.8 109.1 1.8 109.7.8.5.7.8-.5.8-1.5 0-1.8 1-1.8 6.6 0 6.2.1 6.5 2.3 6.2 1.3-.2 2.1-.9 1.8-1.8-.2-.8-.3-51.1-.2-111.7.2-77-.1-110.8-.8-112.2-.6-1.1-.8-2.2-.4-2.4 1.3-.8.9-10-.3-10.4-.7-.2-1.4 1.1-1.8 2.9zM460.7 258c.2 155-.1 140 2.3 140 2 0 2-.7 2-121.1 0-119.2 0-121.1-1.9-121.6-1.6-.4-2.1-1.5-2.3-5.2-.2-2.5-.2 46-.1 107.9zM177 153.4c0 5.2.3 6.6 1.5 6.6s1.5-1.3 1.5-5.5c0-3 0-5.8.1-6.3 0-.4-.7-.8-1.5-1-1.3-.3-1.6.8-1.6 6.2zM21 268.1v119l2-.3c1.2-.2 2.1-.6 2-1.1V267c0-116.6 0-118-2-118-1.9 0-1.9 1.4-2 119.1zm162.7-106.9c-.9 15.5-.9 197.6-.1 204.5.5 3.5 1.1 5.3 2 5.3 1.2 0 1.4-18.1 1.4-111 0-92.4-.2-111-1.3-111s-1.6 3-2 12.2zM468 218.7c0 37.3-.2 85.7-.4 107.5l-.4 39.8h4.3l.3-92.3c.3-99.7-.1-122.7-2.4-122.7-1.2 0-1.4 10.5-1.4 67.7zm-223-19c0 25.8-.2 79.1-.4 118.5l-.4 71.8h4.4l-.1-118.5c0-112.2-.1-118.5-1.7-118.5-1.7 0-1.8 2.9-1.8 46.7zM27.8 169.5c.7 14.6.6 48.2-.2 124.5-.3 25-.1 44.4.3 43 .4-1.4.7 10.3.6 26-.2 15.7-.1 27.5.2 26.2.6-2.8 2-2.8 2.6 0 .2 1.3.5-48.9.6-111.5C32 166 31.9 164 30 164c-1.5 0-2-.9-2.3-4.3-.3-2.3-.2 2.1.1 9.8zm7.5-10.3c-.4.7-.8 42.5-.8 92.8s.3 88.8.7 85.5c.3-3.3.5 4.5.3 17.3-.3 21.2-.1 23.3 1.4 23 1.3-.3 1.6-1.5 1.5-6.3-.4-21.6-.3-109.5.2-153.8.3-29 .3-54.3 0-56.2-.7-3.6-1.9-4.4-3.3-2.3zM48 162c0 2.3.5 3 1.9 3 2 0 3.7-3.2 2.6-5-.3-.5-1.5-1-2.6-1-1.4 0-1.9.7-1.9 3zm439.8-2.3c.6.2 1.8.2 2.5 0 .6-.3.1-.5-1.3-.5-1.4 0-1.9.2-1.2.5zM217.4 275.2c.2 108 .3 115.3 1.9 115.6 2 .4 1.9 7.1 2.1-141l.1-89.8h-4.3l.2 115.2zm94.5-109.9c-.5 6 0 7.9 1.9 7.5 2.5-.5 2.5-11.1.1-11.6-1.3-.2-1.8.7-2 4.1zm-257.2-1.6c-1.1 1-.8 26.3.2 26.3 1.1 0 .6 113.3-.5 115.1-.3.6-.3 17 .1 36.5.7 33.7.8 35.4 2.6 35.4s1.9-2.8 1.9-105c0-104.3 0-105-2-105-1.2 0-2-.7-2-1.6 0-1 .6-1.4 1.5-1.1.8.4 1.7.2 2-.3.7-1.1-2.8-1.4-3.8-.3zm67.9 6.8c-.4 4.1-.6 60.1-.6 124.4.1 96 .4 117 1.5 117.5.7.2 1.6.2 1.9-.1.3-.4.6-56.6.6-125 0-104.2-.2-124.3-1.4-124.3-.9 0-1.5 2.2-2 7.5zm176.4-4.8c.1.4 0 51.3-.2 113-.3 104.7-.2 112.2 1.4 112.6.9.3 1.9.3 2.1.1.2-.2.3-51.1.2-113.1-.2-103.2-.4-112.8-1.9-113.1-.9-.2-1.6 0-1.6.5zm176.7 1c-.4.3-.7 3.1-.7 6 0 4.6.3 5.4 1.8 5.1 2.2-.4 3-8.9.9-10.6-.8-.7-1.7-.9-2-.5zm-399.9.9c-.8.8-1 179.6-.2 181.7.3.9 1.2 1.7 2 1.7 1.2 0 1.4-14 1.4-92 0-76-.2-92-1.3-92-.8 0-1.6.3-1.9.6zm87.5 102.9c-.2 102.1-.2 103.5 1.7 103.5 2.4 0 2.3 6.4 2.2-118 0-84.9-.1-88.5-1.9-88.8-1.7-.3-1.8 3.6-2 103.3zM150 174.4c0 4.3.3 5.6 1.5 5.6 1.1 0 1.5-1.2 1.5-4.5 0-2.5 0-4.8.1-5.3 0-.4-.7-.8-1.5-1-1.3-.3-1.6.7-1.6 5.2zm337.8-3.7c-.2 1-.3 48.8-.2 106.3.2 97.8.3 104.5 1.9 104.5 1.6 0 1.7-6.8 2.1-104.5.2-57.5.1-105.3-.2-106.3-.3-.9-1.1-1.7-1.9-1.7-.7 0-1.5.8-1.7 1.7zM366 312.5c0 137.2.1 141.5 1.9 141.5 1.6 0 1.9-1.3 2.4-14.3.4-7.8.5-61.5.2-119.2-.3-57.8-.5-115-.5-127.3 0-21.5-.1-22.2-2-22.2-2 0-2 .7-2 141.5zm81.6-132.3c-.3 5-.6 64.9-.6 133v123.9l2.3-.3 2.2-.3.2-122c.1-127.6-.1-143.5-2.2-143.5-.8 0-1.4 3-1.9 9.2zM48 266.6v94.5l2.2-.3 2.3-.3-.3-93c-.1-51.2-.2-93.6-.2-94.3 0-.6-.9-1.2-2-1.2-1.9 0-2 1-2 94.6zm14.2-90.4c.6 1.8 2.8 2.1 2.8.4 0-.9-.7-1.6-1.6-1.6-.9 0-1.4.5-1.2 1.2zm195.7 2.5c-.5 9.7-.7 204.2-.3 214.8.6 11.9.8 13.1 2.5 13.1 1.9 0 1.9-2.8 1.6-115.1-.2-108.6-.3-115-1.9-115.3-1.4-.3-1.8.4-1.9 2.5zM481 264c0 83.4.1 88.1 1.8 87.8 1.6-.3 1.7-5.3 1.7-87.8s-.1-87.5-1.7-87.8c-1.7-.3-1.8 4.4-1.8 87.8zm-324.2-86.4c-.3.3-.7 40.5-.7 89.5l-.2 88.9h2.7c2.6 0 2.7-.1 2-4.6-.3-2.6-.6-42.9-.6-89.5 0-70.1-.2-84.9-1.3-84.9-.8 0-1.6.3-1.9.6zm345 117.1c-.3 128.9-.3 133.3 1.7 133.3.9 0 1.4-3.5 1.8-14.2.5-11.8.3-232.6-.1-235.1-.1-.4-.9-.7-1.7-.7-1.2 0-1.5 14.9-1.7 116.7zm-216.1-115c-.9 1.4-.9 5.7-.8 120C285 411.4 285 412 287 412s2-.5 1.8-116.2c-.3-113-.5-120.4-3.1-116.1zm-54.9 1.5c0 .7-.2 53.8-.2 118l-.2 116.8h4.5l-.3-117.8c-.2-64.7-.4-117.8-.5-118-.4-.8-3.1 0-3.3 1zM69 185.5c0 3.5.3 4.3 1.5 3.9.9-.4 1.5-1.9 1.5-3.9s-.6-3.5-1.5-3.9c-1.2-.4-1.5.4-1.5 3.9zm107.9-1.8c-.1 1.6-.3 46.8-.5 100.7-.2 70.9 0 98.4.8 99.9l1.1 2.1.8-2.1c.7-1.8 1.2-98 1-176.6-.1-23-.3-26.7-1.6-26.7-.9 0-1.5 1-1.6 2.7zm244.3-2c-1 .4-1.2 24.3-1.2 123.2.1 114.4.2 122.7 1.8 122.7 2.2 0 2 8.6 2.4-130.3.3-78.5 0-115.4-.7-115.6-.5-.2-1.6-.2-2.3 0zm-360 66.8c.2 36 .6 65.5 1 65.5.3 0 .5 6.7.4 15-.2 14.7.6 19.6 1.7 10.2.3-2.6.6-15.5.6-28.7.1-13.2.4-46.5.7-74 .3-27.5.3-50.8-.1-51.8-.4-.9-1.6-1.7-2.6-1.7-1.9 0-1.9 1.6-1.7 65.5zM42 189c0 2.9.4 4 1.5 4s1.5-1.1 1.5-4-.4-4-1.5-4-1.5 1.1-1.5 4zm351.7-3.3c-.4.3-.7 49.2-.7 108.5 0 104.3.1 107.8 1.9 107.8 1.6 0 1.9-1.1 2.3-8.8.3-4.8.4-45.2.2-89.7-.1-44.6-.3-89.4-.3-99.8-.1-14.9-.4-18.7-1.4-18.7-.8 0-1.7.3-2 .7zm-325 16c-.4.7-.2 150.5.2 154.7.2 1.5.5 1.6 1.4.7.9-.9 1.3-20.1 1.5-78.6.3-68.6.2-77.5-1.2-77.5-.8 0-1.7.3-1.9.7zm81.2-.5c-.1.2-.3 41.6-.4 92l-.2 91.8h5l-.6-11.3c-.4-6.1-.7-47.5-.7-92 0-71.1-.2-80.7-1.5-80.7-.8 0-1.6.1-1.6.2zm162.8 2.5c-.4.3-.7 39.7-.7 87.4 0 72.4.3 86.9 1.4 87.8 2.3 1.9 2.7-15.3 2.4-98.3-.3-74.3-.5-79.6-3.1-76.9zm-271.1 4.9c-.3.9-.6 38.7-.6 84V375h5.3l-.6-31.7c-.4-17.4-.7-55.2-.7-84 0-44-.2-52.3-1.4-52.3-.8 0-1.7.7-2 1.6zm433.1 6c-.4.4-.7 39.2-.7 86.1l.1 85.3h4.6l-.1-85.7c-.1-76.6-.3-85.8-1.6-86.1-.9-.1-1.9.1-2.3.4z"/><path d="M61 349c0 3.6.3 4 2.5 4 2.3 0 2.5-.4 2.5-4s-.2-4-2.5-4c-2.2 0-2.5.4-2.5 4zm420 13.1c0 2.5 3.3 2.2 3.8-.4.2-1.2-.3-1.7-1.7-1.7-1.5 0-2.1.6-2.1 2.1zm-325 6.4c0 2 .5 2.5 2.5 2.5s2.5-.5 2.5-2.5-.5-2.5-2.5-2.5-2.5.5-2.5 2.5zm-80.4.1c-1 2.6-.7 3.4 1.4 3.4 1.5 0 2-.7 2-2.5 0-2.8-2.4-3.4-3.4-.9zm97.7 6.9c0 2.7.2 3.8.4 2.2.2-1.5.2-3.7 0-5-.2-1.2-.4 0-.4 2.8zm294.7 3.2c0 5 .3 6.3 1.6 6.3 1.2 0 1.5-1.2 1.3-6.3-.1-4.6-.6-6.4-1.6-6.4-.9 0-1.3 1.7-1.3 6.4zM48 378c0 2.7.3 3.1 2.3 2.8 1.6-.2 2.2-1 2.2-2.8 0-1.8-.6-2.6-2.2-2.8-2-.3-2.3.1-2.3 2.8zm115-.6c0 1.5.7 2.6 1.8 2.9 1.6.4 1.6.5 0 .6-1.1.1-1.8.9-1.8 2.1 0 1.5.7 2 2.6 2 2.2 0 2.5-.3 2-2.3-.3-1.2-.6-3.6-.7-5.2 0-2.6-.2-2.7-.9-1-.7 1.7-.9 1.7-.9.2-.1-2.7-2.1-2-2.1.7zm-108 2.9c0 1.6.6 2.3 2 2.3s2-.7 2-2.3c0-1.6-.6-2.3-2-2.3s-2 .7-2 2.3zm114.6 1.4c-.3.4-.6 3.3-.6 6.5 0 5.5.1 5.8 2.5 5.8s2.5-.2 2.5-6.3c0-5.5-.2-6.3-1.9-6.4-1-.1-2.2.1-2.5.4zM34.2 390c.3 5.9.5 6.5 2.6 6.8 2.1.3 2.2 0 2.2-6.7 0-7 0-7.1-2.5-6.9-2.5.2-2.6.4-2.3 6.8zm20.1-4.2c-.7 1.6.2 2.5 2.7 2.7 1.4.1 2-.5 2-2 0-2.4-3.9-3-4.7-.7zm129.7 2.7c0 1.6.6 2.5 1.5 2.5s1.5-.9 1.5-2.5-.6-2.5-1.5-2.5-1.5.9-1.5 2.5zm283 4.5c0 6.8.1 7 2.5 7s2.5-.2 2.5-7-.1-7-2.5-7-2.5.2-2.5 7zm-148.8-2c0 1.4.2 1.9.5 1.2.2-.6.2-1.8 0-2.5-.3-.6-.5-.1-.5 1.3zm-40.2 6c0 6.8.1 7.1 2.3 6.8 2-.3 2.2-.8 2.2-6.8s-.2-6.5-2.2-6.8c-2.2-.3-2.3 0-2.3 6.8zm-32.9-2.8c0 2.1.4 3.8 1.2 4.1.7.3.5.6-.5.6-1.1.1-1.8.9-1.8 2.1 0 1.5.7 2 2.5 2 2.5 0 2.5-.1 1.9-5.8-.8-6.5-1.3-7.9-1.5-3.6l-.1 2.9-.8-3-.8-3-.1 3.7zm-217.7-.7c-.8 2 .4 3.5 2.7 3.5 1.4 0 1.9-.7 1.9-2.5s-.5-2.5-2-2.5c-1.1 0-2.3.7-2.6 1.5zm273.8 2.5c0 1.9.2 2.7.5 1.7.2-.9.2-2.5 0-3.5-.3-.9-.5-.1-.5 1.8zm4.1 2.5c0 3.3.2 4.5.4 2.7.2-1.8.2-4.5 0-6s-.4 0-.4 3.3zM224 404c0 6.3.2 7 2 7s2-.7 2-7-.2-7-2-7-2 .7-2 7zm95.8-5.3c.7.3 1.6.2 1.9-.1.4-.3-.2-.6-1.3-.5-1.1 0-1.4.3-.6.6zM217 401c0 1.6.5 2.1 2.3 1.8 1.2-.2 2.2-1 2.2-1.8s-1-1.6-2.2-1.8c-1.8-.3-2.3.2-2.3 1.8zm244.3 1.5c0 2.2.2 3 .4 1.7.2-1.2.2-3 0-4-.3-.9-.5.1-.4 2.3zm-440.3-1c0 1.1.7 1.5 2.3 1.3 1.2-.2 2.2-.8 2.2-1.3 0-.6-1-1.1-2.2-1.3-1.6-.2-2.3.2-2.3 1.3zm270.2.7c.2 1.5 1.1 2.4 2.6 2.6 1.8.3 2.2-.1 2.2-2.2s-.5-2.6-2.6-2.6-2.5.4-2.2 2.2zm6.8-.2c0 1.5.7 2 2.5 2s2.5-.5 2.5-2-.7-2-2.5-2-2.5.5-2.5 2zm-88 6c0 2.5.4 3 2.5 3s2.5-.5 2.5-3-.4-3-2.5-3-2.5.5-2.5 3zm250.2.7c.2 1 1.3 1.9 2.6 2.1 1.7.3 2.2-.2 2.2-1.7 0-1.6-.6-2.1-2.6-2.1-1.9 0-2.5.5-2.2 1.7zM129 415c0 2.5.4 3 2.5 3s2.5-.5 2.5-3-.4-3-2.5-3-2.5.5-2.5 3zm142 0c0 1.5.7 2 2.5 2s2.5-.5 2.5-2-.7-2-2.5-2-2.5.5-2.5 2zm-6.3 1.7c-.4.3-.7 1.9-.7 3.5 0 2.3.4 2.8 2.5 2.8 2.2 0 2.5-.4 2.5-3.5 0-2.7-.4-3.5-1.8-3.5-1 0-2.2.3-2.5.7zm189.3 2.8c0 2.2.4 2.6 2.3 2.3 1.4-.2 2.2-1 2.2-2.3 0-1.3-.8-2.1-2.2-2.3-1.9-.3-2.3.1-2.3 2.3zM237 421c0 2.5.4 3 2.5 3s2.5-.5 2.5-3-.4-3-2.5-3-2.5.5-2.5 3zm-113.7-.3c.9.2 2.3.2 3 0 .6-.3-.1-.5-1.8-.5-1.6 0-2.2.2-1.2.5zm248.9 2c.2 2 .9 2.9 2.6 3.1 1.9.3 2.2-.1 2.2-2.7 0-2.7-.4-3.1-2.6-3.1s-2.5.4-2.2 2.7zm54.6 4.8c-.6 2.9-.2 3.5 2.4 3.5 1.3 0 1.8-.8 1.8-3 0-3.9-3.5-4.3-4.2-.5zm-27.3.4c-.3.2-.5 1.5-.5 2.8 0 1.8.5 2.3 2.5 2.3 2.1 0 2.5-.5 2.5-2.8 0-2.1-.5-2.8-2-2.8-1.2 0-2.3.2-2.5.5zm7.7 3.2c-.1 2.6-.5 6.1-.8 7.8-.6 2.8-.4 3.1 2 3.1 1.9 0 2.6-.5 2.6-2 0-1-.6-2.3-1.4-2.7-.9-.5-1.6-2.8-1.9-5.8l-.3-5-.2 4.6zM333 439c0 .5.5 1 1 1 .6 0 1-.5 1-1 0-.6-.4-1-1-1-.5 0-1 .4-1 1zm-231 10c0 3.6.3 4 2.5 4 2.3 0 2.5-.4 2.5-4s-.2-4-2.5-4c-2.2 0-2.5.4-2.5 4zm338 5c0 8.9 0 9 2.5 9s2.5-.1 2.5-9 0-9-2.5-9-2.5.1-2.5 9zm-331 0c0 2.3.4 3 2 3s2-.7 2-3-.4-3-2-3-2 .7-2 3zm324 9c0 1.5.7 2 2.5 2s2.5-.5 2.5-2-.7-2-2.5-2-2.5.5-2.5 2zm-79.7 7c-.1 3.6.2 5.6.4 4.5.3-1.1 1.1-2.4 1.9-2.8 1.8-1 1.8-3.7 0-3.7-.8 0-1.7-1-1.9-2.3-.2-1.2-.4.7-.4 4.3zm-155.8 21.3c0 21.7.2 25.2 1.5 25.2s1.5-3.5 1.5-25.2c0-21.8-.2-25.3-1.5-25.3s-1.5 3.5-1.5 25.3zM345 502.7c0 4.6 1.3 6.8 3.4 6 1.1-.5 1.6-1.9 1.6-5.2 0-4.1-.2-4.5-2.5-4.5-2.2 0-2.5.4-2.5 3.7z"/></svg>