<?xml version="1.0" standalone="no"?>
<!DOCTYPE svg PUBLIC "-//W3C//DTD SVG 20010904//EN"
 "http://www.w3.org/TR/2001/REC-SVG-20010904/DTD/svg10.dtd">
<svg version="1.0" xmlns="http://www.w3.org/2000/svg"
 width="540.000000pt" height="540.000000pt" viewBox="0 0 540.000000 540.000000"
 preserveAspectRatio="xMidYMid meet">
<metadata>
Created by potrace 1.11, written by Peter Selinger 2001-2013
</metadata>
<g transform="translate(0.000000,540.000000) scale(0.100000,-0.100000)"
fill="#000000" stroke="none">
<path d="M0 2700 l0 -2700 2700 0 2700 0 0 2700 0 2700 -2700 0 -2700 0 0
-2700z m5374 2674 c14 -14 16 -274 16 -2653 0 -1451 -3 -2652 -6 -2670 l-6
-31 -2678 0 -2677 0 -5 28 c-4 22 -3 2316 1 4784 l1 548 2457 3 c1352 1 2553
3 2670 5 181 2 214 0 227 -14z"/>
<path d="M3456 5072 c-2 -4 -3 -1003 -3 -2220 2 -2205 2 -2212 22 -2212 20 0
20 7 22 2220 1 2162 1 2220 -17 2220 -10 0 -21 -3 -24 -8z"/>
<path d="M1970 4930 c0 -43 3 -50 20 -50 17 0 20 7 20 50 0 43 -3 50 -20 50
-17 0 -20 -7 -20 -50z"/>
<path d="M1970 4805 c0 -58 2 -65 20 -65 18 0 20 7 20 65 0 58 -2 65 -20 65
-18 0 -20 -7 -20 -65z"/>
<path d="M3520 4820 c0 -5 11 -10 25 -10 14 0 25 5 25 10 0 6 -11 10 -25 10
-14 0 -25 -4 -25 -10z"/>
<path d="M2030 4710 l0 -110 25 0 25 0 0 110 0 110 -25 0 -25 0 0 -110z"/>
<path d="M3397 4754 c-4 -4 -7 -54 -7 -111 0 -94 2 -104 18 -101 15 3 17 16
17 107 0 97 -8 125 -28 105z"/>
<path d="M3260 4740 c0 -5 6 -10 14 -10 8 0 18 5 21 10 3 6 -3 10 -14 10 -12
0 -21 -4 -21 -10z"/>
<path d="M1970 4723 c0 -5 1 -485 2 -1068 2 -583 1 -1475 -1 -1982 -3 -707 -1
-923 8 -923 9 0 11 46 9 180 -2 99 0 180 4 180 4 0 9 -82 11 -182 1 -101 3
714 5 1810 2 1986 2 1992 -18 1992 -11 0 -20 -3 -20 -7z"/>
<path d="M3327 4513 c-4 -104 -5 -924 -3 -1823 3 -1404 6 -1635 18 -1638 12
-2 15 146 19 1045 4 1061 4 2214 -1 2466 -2 99 -6 137 -15 137 -9 0 -14 -51
-18 -187z"/>
<path d="M4400 4645 c0 -52 1 -55 25 -55 24 0 25 3 25 55 0 52 -1 55 -25 55
-24 0 -25 -3 -25 -55z"/>
<path d="M3590 4636 c0 -35 4 -45 20 -49 11 -3 20 -1 20 3 0 5 -8 11 -17 13
-14 4 -12 5 5 6 18 1 22 7 22 36 0 31 -3 35 -25 35 -23 0 -25 -4 -25 -44z"/>
<path d="M4330 4640 c0 -5 11 -10 25 -10 14 0 25 5 25 10 0 6 -11 10 -25 10
-14 0 -25 -4 -25 -10z"/>
<path d="M3525 2685 l0 -1910 23 -3 22 -3 -1 1858 c-1 1022 -4 1866 -6 1876
-3 11 -11 16 -18 13 -10 -4 -15 7 -17 37 -2 23 -3 -817 -3 -1868z"/>
<path d="M3260 4497 c-1 -40 0 -3018 0 -3474 0 -63 3 -83 13 -83 24 0 26 203
24 1932 -2 1578 -3 1667 -19 1672 -15 3 -18 -3 -18 -47z"/>
<path d="M3660 4414 c0 -98 3 -123 15 -127 22 -9 28 8 33 109 6 111 0 140 -28
140 -19 0 -20 -6 -20 -122z"/>
<path d="M1020 2844 l0 -1685 21 3 22 3 1 1682 1 1683 -22 0 -22 0 -1 -1686z"/>
<path d="M4340 4478 c-2 -248 -1 -3552 1 -3608 1 -41 4 -60 6 -42 2 17 8 32
14 32 14 0 11 48 -3 53 -8 3 -6 6 5 6 16 1 17 94 17 1801 0 1793 0 1800 -20
1800 -17 0 -20 -7 -20 -42z"/>
<path d="M3599 3058 c-1 -799 -3 -1506 -5 -1570 -1 -79 1 -118 8 -118 8 0 9
-56 4 -184 -5 -145 -4 -185 6 -189 8 -3 6 -6 -4 -6 -16 -1 -18 -13 -18 -106 0
-102 1 -105 23 -105 l22 0 0 1753 c0 963 -4 1758 -8 1764 -4 7 -5 58 -1 113 6
89 5 100 -10 100 -15 0 -16 -112 -17 -1452z"/>
<path d="M4410 4482 c0 -15 0 -713 -1 -1552 -1 -1806 -3 -1620 16 -1620 11 0
15 11 15 43 7 1193 9 3097 5 3117 -9 39 -35 48 -35 12z"/>
<path d="M1368 4493 c6 -2 18 -2 25 0 6 3 1 5 -13 5 -14 0 -19 -2 -12 -5z"/>
<path d="M893 4425 c-8 -51 -10 -357 -7 -1135 4 -1139 4 -1959 1 -2105 -2 -86
-1 -90 21 -93 21 -3 22 -1 22 82 0 72 -3 86 -16 86 -13 0 -15 6 -9 28 11 41
13 222 20 1735 5 923 3 1402 -3 1410 -6 7 -12 23 -14 37 -2 15 -8 -4 -15 -45z"/>
<path d="M960 4435 c0 -25 5 -45 11 -45 5 0 7 5 4 10 -3 6 -1 10 4 10 6 0 11
16 11 35 0 24 -5 35 -15 35 -11 0 -15 -12 -15 -45z"/>
<path d="M1099 4468 c0 -2 -2 -806 -4 -1788 -1 -982 0 -1769 4 -1750 7 35 14
30 24 -15 7 -32 12 2415 7 3518 0 26 -4 37 -15 37 -8 0 -15 -1 -16 -2z"/>
<path d="M5079 4465 c-4 -3 -4 -17 -1 -30 3 -19 11 -25 29 -25 21 0 24 4 21
28 -2 18 -10 28 -23 30 -12 2 -23 0 -26 -3z"/>
<path d="M1430 4405 c0 -28 4 -35 20 -35 16 0 20 7 20 35 0 28 -4 35 -20 35
-16 0 -20 -7 -20 -35z"/>
<path d="M1432 4335 c0 -16 2 -22 5 -12 2 9 2 23 0 30 -3 6 -5 -1 -5 -18z"/>
<path d="M1462 4335 c0 -16 2 -22 5 -12 2 9 2 23 0 30 -3 6 -5 -1 -5 -18z"/>
<path d="M4477 4333 c-10 -10 -8 -146 2 -162 5 -8 16 -11 25 -8 13 5 16 23 16
92 0 76 -2 85 -18 85 -10 0 -22 -3 -25 -7z"/>
<path d="M3994 2808 c2 -1507 2 -1523 21 -1526 20 -3 20 11 23 1523 l3 1525
-24 0 -25 0 2 -1522z"/>
<path d="M2646 4193 c-4 -71 -6 -730 -4 -1465 3 -1336 3 -1338 23 -1338 20 0
20 1 18 1397 -1 769 -2 1428 -2 1466 -1 50 -5 67 -15 67 -10 0 -15 -29 -20
-127z"/>
<path d="M1362 2605 l-2 -1705 23 0 c23 0 23 1 19 83 -5 96 -12 116 -12 34 0
-31 -4 -57 -10 -57 -6 0 -10 27 -10 60 0 47 3 60 15 60 19 0 19 86 15 3158 0
62 -2 72 -17 72 -17 0 -18 -89 -21 -1705z"/>
<path d="M4267 4303 c-2 -5 -3 -678 -3 -1498 1 -1482 1 -1490 21 -1493 20 -3
20 4 23 1498 3 1491 3 1500 -17 1500 -11 0 -22 -3 -24 -7z"/>
<path d="M5017 4274 c-10 -11 -9 -162 2 -168 5 -4 17 -3 25 0 24 9 19 167 -4
172 -9 1 -19 0 -23 -4z"/>
<path d="M3682 4245 c0 -16 2 -22 5 -12 2 9 2 23 0 30 -3 6 -5 -1 -5 -18z"/>
<path d="M3727 4253 c-3 -5 -4 -658 -3 -1453 l1 -1445 20 -3 21 -3 0 1431 c0
1367 -1 1430 -18 1430 -10 0 -18 7 -18 15 0 8 9 15 20 15 11 0 20 5 20 10 0
12 -37 14 -43 3z"/>
<path d="M3808 4253 c7 -3 16 -2 19 1 4 3 -2 6 -13 5 -11 0 -14 -3 -6 -6z"/>
<path d="M4200 4182 c0 -43 3 -82 6 -85 4 -3 15 -2 26 4 16 9 18 20 16 82 -3
66 -5 72 -25 75 -22 3 -23 1 -23 -76z"/>
<path d="M1169 4243 c-1 -5 0 -36 1 -71 1 -38 -4 -69 -11 -78 -9 -12 -10 -204
-3 -892 10 -974 10 -1790 0 -1927 -4 -49 -3 -85 1 -80 4 6 14 10 21 10 11 0
14 264 19 1448 4 1030 2 1447 -6 1447 -6 0 -9 6 -6 13 2 6 6 40 10 75 5 52 4
62 -10 62 -8 0 -16 -3 -16 -7z"/>
<path d="M1423 4234 c-3 -10 -2 -377 3 -818 4 -441 6 -1116 4 -1501 -7 -997
-9 -889 18 -893 21 -3 22 -1 22 92 0 81 -2 94 -15 90 -10 -4 -15 0 -15 15 0
22 16 29 22 11 2 -6 4 671 5 1505 2 1499 1 1515 -18 1515 -11 0 -22 -7 -26
-16z m14 -151 c-2 -21 -4 -6 -4 32 0 39 2 55 4 38 2 -18 2 -50 0 -70z m20
-2615 c-1 -40 -3 -10 -3 67 0 77 1 110 3 73 2 -37 2 -100 0 -140z"/>
<path d="M2373 2808 c2 -1419 3 -1433 22 -1436 20 -3 20 9 20 1433 l0 1435
-22 0 -23 0 3 -1432z"/>
<path d="M4069 2993 c0 -681 -2 -1376 -5 -1546 l-5 -307 25 0 25 0 1 1545 c0
1543 0 1545 -20 1545 -20 0 -20 -3 -21 -1237z"/>
<path d="M5080 2590 c0 -902 0 -1643 0 -1647 0 -5 10 -8 23 -8 19 0 22 5 20
40 0 22 -1 105 0 185 1 80 1 803 2 1607 l0 1463 -22 0 -23 0 0 -1640z"/>
<path d="M1910 4188 c0 -13 -2 -647 -4 -1410 -3 -1278 -2 -1387 13 -1391 13
-4 13 -5 -2 -6 -16 -1 -18 -9 -15 -68 3 -59 6 -68 22 -68 18 0 19 34 18 1455
-1 800 -1 1467 -1 1483 -1 33 -31 38 -31 5z"/>
<path d="M4139 2803 c-1 -764 -3 -1427 -5 -1475 -2 -69 0 -88 11 -88 8 0 16 4
19 8 8 13 17 2641 10 2800 -5 109 -10 142 -20 142 -12 0 -14 -227 -15 -1387z"/>
<path d="M1290 2805 l0 -1375 23 0 22 0 0 1375 0 1375 -22 0 -23 0 0 -1375z"/>
<path d="M2039 4148 c-1 -13 -3 -707 -5 -1543 -4 -1665 1 -2135 21 -2135 22 0
25 251 20 1990 -4 1526 -6 1705 -20 1708 -10 2 -16 -5 -16 -20z"/>
<path d="M2580 4150 c0 -11 5 -20 10 -20 6 0 10 9 10 20 0 11 -4 20 -10 20 -5
0 -10 -9 -10 -20z"/>
<path d="M2720 4093 c-1 -514 -2 -2730 -1 -2765 1 -33 5 -48 15 -48 9 0 15 20
19 68 4 47 1 2739 -3 2815 0 4 -7 7 -15 7 -12 0 -15 -15 -15 -77z"/>
<path d="M4540 2775 c0 -1322 1 -1395 18 -1395 16 0 17 74 20 1395 l3 1395
-21 0 -20 0 0 -1395z"/>
<path d="M2303 4075 c0 -38 2 -53 4 -32 2 20 2 52 0 70 -2 17 -4 1 -4 -38z"/>
<path d="M2785 3974 c-7 -155 -4 -2502 3 -2441 4 35 20 35 24 0 2 -16 3 46 3
137 0 1079 1 2331 2 2393 1 58 -1 77 -12 77 -10 0 -15 -38 -20 -166z"/>
<path d="M3868 2773 c-2 -753 -1 -1383 1 -1400 2 -23 8 -33 20 -33 15 0 17 11
15 82 -1 46 -1 414 -1 818 2 776 1 1679 -1 1818 -1 66 -4 82 -16 82 -14 0 -16
-152 -18 -1367z"/>
<path d="M1232 4121 c-18 -11 -5 -141 14 -141 10 0 14 17 16 60 0 33 1 65 2
72 1 15 -15 20 -32 9z"/>
<path d="M2575 4058 c-4 -35 -5 -81 -3 -103 4 -34 5 -31 6 16 2 48 5 57 23 62
17 5 20 12 17 44 -2 26 -8 39 -20 41 -13 3 -18 -9 -23 -60z"/>
<path d="M2102 2798 c-1 -722 1 -1307 4 -1300 3 6 12 12 20 12 12 0 14 178 14
1248 0 686 3 1271 6 1300 7 51 6 52 -19 52 l-25 0 0 -1312z"/>
<path d="M3800 3148 c0 -530 -1 -1180 -3 -1446 l-4 -482 24 0 c14 0 23 6 23
15 0 8 -7 15 -15 15 -18 0 -20 27 -2 33 9 3 12 295 12 1415 1 1349 0 1412 -17
1412 -17 0 -18 -45 -18 -962z"/>
<path d="M4952 2718 c2 -1053 6 -1353 15 -1353 10 0 13 273 18 1220 5 1271 2
1485 -21 1485 -12 0 -14 -218 -12 -1352z"/>
<path d="M1702 4028 c2 -13 9 -23 17 -23 8 0 16 10 17 23 3 17 -1 22 -17 22
-15 0 -20 -5 -17 -22z"/>
<path d="M2854 4037 c-3 -8 -4 -41 -2 -73 2 -44 7 -59 18 -59 12 0 15 14 15
69 0 47 -4 71 -12 73 -7 3 -15 -2 -19 -10z"/>
<path d="M2914 4037 c-2 -7 -3 -573 -2 -1257 3 -1236 3 -1245 23 -1248 20 -3
20 3 20 1258 0 1204 -1 1260 -18 1260 -10 0 -20 -6 -23 -13z"/>
<path d="M3930 3986 c0 -65 10 -86 33 -68 8 7 11 32 9 71 -3 52 -7 61 -23 61
-17 0 -19 -8 -19 -64z"/>
<path d="M3397 4034 c-4 -4 -7 -736 -7 -1626 0 -1612 0 -1618 20 -1618 20 0
20 5 18 1622 -2 1133 -6 1622 -14 1625 -5 2 -13 0 -17 -3z"/>
<path d="M212 3973 c1 -43 2 -48 5 -20 2 20 8 37 14 37 5 0 10 -17 10 -37 2
-35 2 -34 9 12 8 58 6 65 -21 65 -17 0 -19 -7 -17 -57z"/>
<path d="M957 3883 c-4 -76 -7 -735 -7 -1466 l0 -1327 27 0 26 0 -6 392 c-4
215 -7 874 -7 1465 0 892 -2 1073 -13 1073 -11 0 -15 -32 -20 -137z"/>
<path d="M1700 3875 c-11 -92 -11 -238 -4 -733 5 -339 9 -825 9 -1080 0 -254
2 -462 6 -462 15 0 19 204 25 1182 6 964 3 1208 -15 1208 -4 0 -14 -52 -21
-115z"/>
<path d="M2246 3974 c-9 -24 -3 -2535 7 -2521 5 9 9 9 15 0 4 -7 8 559 8 1259
-1 1242 -3 1332 -30 1262z"/>
<path d="M3186 3748 c-5 -190 -2 -1958 3 -2155 1 -31 5 -43 16 -43 13 0 15 31
15 223 0 122 1 620 3 1107 5 981 3 1110 -17 1110 -11 0 -15 -52 -20 -242z"/>
<path d="M2310 3915 c0 -49 3 -65 14 -65 19 0 26 22 26 81 0 42 -3 49 -20 49
-18 0 -20 -7 -20 -65z"/>
<path d="M839 3963 c-14 -3 -17 -24 -21 -116 -3 -62 0 -128 5 -147 6 -22 7
-168 3 -390 -6 -330 -6 -1080 -1 -1560 2 -139 -1 -210 -9 -219 -8 -11 -8 -13
2 -7 9 5 12 -3 12 -28 0 -25 4 -36 15 -36 13 0 15 146 15 1255 0 690 -1 1254
-2 1254 -2 -1 -10 -3 -19 -6z"/>
<path d="M3056 3908 c-3 -24 -4 -578 -1 -1233 5 -1004 8 -1190 20 -1193 11 -3
13 30 12 195 -1 109 -1 628 1 1153 3 1234 5 1120 -12 1120 -9 0 -16 -16 -20
-42z"/>
<path d="M2516 3908 c-3 -18 -3 -523 -1 -1123 4 -847 8 -1091 18 -1097 8 -5 7
-8 -5 -8 -15 0 -18 -10 -18 -66 0 -62 1 -65 23 -62 13 2 21 9 18 18 -2 8 -3
511 -2 1117 2 770 -1 1108 -8 1122 -6 11 -8 22 -4 24 13 8 9 100 -3 104 -7 2
-14 -11 -18 -29z"/>
<path d="M4607 2820 c2 -1550 -1 -1400 23 -1400 20 0 20 7 20 1211 0 1192 0
1211 -19 1216 -16 4 -21 15 -23 52 -2 25 -2 -460 -1 -1079z"/>
<path d="M1770 3866 c0 -52 3 -66 15 -66 12 0 15 13 15 55 0 30 0 58 1 63 0 4
-7 8 -15 10 -13 3 -16 -8 -16 -62z"/>
<path d="M210 2719 l0 -1190 20 3 c12 2 21 6 20 11 0 4 0 538 0 1187 0 1166 0
1180 -20 1180 -19 0 -19 -14 -20 -1191z"/>
<path d="M1837 3788 c-9 -155 -9 -1976 -1 -2045 5 -35 11 -53 20 -53 12 0 14
181 14 1110 0 924 -2 1110 -13 1110 -11 0 -16 -30 -20 -122z"/>
<path d="M4680 3213 c0 -373 -2 -857 -4 -1075 l-4 -398 21 0 22 0 3 923 c3
997 -1 1227 -24 1227 -12 0 -14 -105 -14 -677z"/>
<path d="M2450 3403 c0 -258 -2 -791 -4 -1185 l-4 -718 22 0 22 0 -1 1185 c0
1122 -1 1185 -17 1185 -17 0 -18 -29 -18 -467z"/>
<path d="M278 3705 c7 -146 6 -482 -2 -1245 -3 -250 -1 -444 3 -430 4 14 7
-103 6 -260 -2 -157 -1 -275 2 -262 6 28 20 28 26 0 2 -13 5 489 6 1115 1
1117 0 1137 -19 1137 -15 0 -20 9 -23 43 -3 23 -2 -21 1 -98z"/>
<path d="M353 3808 c-4 -7 -8 -425 -8 -928 0 -503 3 -888 7 -855 3 33 5 -45 3
-173 -3 -212 -1 -233 14 -230 13 3 16 15 15 63 -4 216 -3 1095 2 1538 3 290 3
543 0 562 -7 36 -19 44 -33 23z"/>
<path d="M480 3780 c0 -23 5 -30 19 -30 20 0 37 32 26 50 -3 5 -15 10 -26 10
-14 0 -19 -7 -19 -30z"/>
<path d="M4878 3803 c6 -2 18 -2 25 0 6 3 1 5 -13 5 -14 0 -19 -2 -12 -5z"/>
<path d="M2174 2648 c2 -1080 3 -1153 19 -1156 20 -4 19 -71 21 1410 l1 898
-22 0 -21 0 2 -1152z"/>
<path d="M3119 3747 c-5 -60 0 -79 19 -75 25 5 25 111 1 116 -13 2 -18 -7 -20
-41z"/>
<path d="M547 3763 c-11 -10 -8 -263 2 -263 11 0 6 -1133 -5 -1151 -3 -6 -3
-170 1 -365 7 -337 8 -354 26 -354 18 0 19 28 19 1050 0 1043 0 1050 -20 1050
-12 0 -20 7 -20 16 0 10 6 14 15 11 8 -4 17 -2 20 3 7 11 -28 14 -38 3z"/>
<path d="M1226 3695 c-4 -41 -6 -601 -6 -1244 1 -960 4 -1170 15 -1175 7 -2
16 -2 19 1 3 4 6 566 6 1250 0 1042 -2 1243 -14 1243 -9 0 -15 -22 -20 -75z"/>
<path d="M2990 3743 c1 -4 0 -513 -2 -1130 -3 -1047 -2 -1122 14 -1126 9 -3
19 -3 21 -1 2 2 3 511 2 1131 -2 1032 -4 1128 -19 1131 -9 2 -16 0 -16 -5z"/>
<path d="M4757 3733 c-4 -3 -7 -31 -7 -60 0 -46 3 -54 18 -51 22 4 30 89 9
106 -8 7 -17 9 -20 5z"/>
<path d="M758 3724 c-8 -8 -10 -1796 -2 -1817 3 -9 12 -17 20 -17 12 0 14 140
14 920 0 760 -2 920 -13 920 -8 0 -16 -3 -19 -6z"/>
<path d="M1633 2695 c-2 -1021 -2 -1035 17 -1035 24 0 23 -64 22 1180 0 849
-1 885 -19 888 -17 3 -18 -36 -20 -1033z"/>
<path d="M1500 3656 c0 -43 3 -56 15 -56 11 0 15 12 15 45 0 25 0 48 1 53 0 4
-7 8 -15 10 -13 3 -16 -7 -16 -52z"/>
<path d="M4878 3693 c-2 -10 -3 -488 -2 -1063 2 -978 3 -1045 19 -1045 16 0
17 68 21 1045 2 575 1 1053 -2 1063 -3 9 -11 17 -19 17 -7 0 -15 -8 -17 -17z"/>
<path d="M3660 2275 c0 -1372 1 -1415 19 -1415 16 0 19 13 24 143 4 78 5 615
2 1192 -3 578 -5 1150 -5 1273 0 215 -1 222 -20 222 -20 0 -20 -7 -20 -1415z"/>
<path d="M4476 3598 c-3 -50 -6 -649 -6 -1330 l0 -1239 23 3 22 3 2 1220 c1
1276 -1 1435 -22 1435 -8 0 -14 -30 -19 -92z"/>
<path d="M480 2734 l0 -945 22 3 23 3 -3 930 c-1 512 -2 936 -2 943 0 6 -9 12
-20 12 -19 0 -20 -10 -20 -946z"/>
<path d="M622 3638 c6 -18 28 -21 28 -4 0 9 -7 16 -16 16 -9 0 -14 -5 -12 -12z"/>
<path d="M2579 3613 c-5 -97 -7 -2042 -3 -2148 6 -119 8 -131 25 -131 19 0 19
28 16 1151 -2 1086 -3 1150 -19 1153 -14 3 -18 -4 -19 -25z"/>
<path d="M4810 2760 c0 -834 1 -881 18 -878 16 3 17 53 17 878 0 825 -1 875
-17 878 -17 3 -18 -44 -18 -878z"/>
<path d="M1568 3624 c-3 -3 -7 -405 -7 -895 l-2 -889 27 0 c26 0 27 1 20 46
-3 26 -6 429 -6 895 0 701 -2 849 -13 849 -8 0 -16 -3 -19 -6z"/>
<path d="M5018 2453 c-3 -1289 -3 -1333 17 -1333 9 0 14 35 18 142 5 118 3
2326 -1 2351 -1 4 -9 7 -17 7 -12 0 -15 -149 -17 -1167z"/>
<path d="M2857 3603 c-9 -14 -9 -57 -8 -1200 1 -1117 1 -1123 21 -1123 20 0
20 5 18 1162 -3 1130 -5 1204 -31 1161z"/>
<path d="M2308 3588 c0 -7 -2 -538 -2 -1180 l-2 -1168 23 0 22 0 -3 1178 c-2
647 -4 1178 -5 1180 -4 8 -31 0 -33 -10z"/>
<path d="M690 3545 c0 -35 3 -43 15 -39 9 4 15 19 15 39 0 20 -6 35 -15 39
-12 4 -15 -4 -15 -39z"/>
<path d="M1769 3563 c-1 -16 -3 -468 -5 -1007 -2 -709 0 -984 8 -999 l11 -21
8 21 c7 18 12 980 10 1766 -1 230 -3 267 -16 267 -9 0 -15 -10 -16 -27z"/>
<path d="M4212 3583 c-10 -4 -12 -243 -12 -1232 1 -1144 2 -1227 18 -1227 22
0 20 -86 24 1303 3 785 0 1154 -7 1156 -5 2 -16 2 -23 0z"/>
<path d="M612 2915 c2 -360 6 -655 10 -655 3 0 5 -67 4 -150 -2 -147 6 -196
17 -102 3 26 6 155 6 287 1 132 4 465 7 740 3 275 3 508 -1 518 -4 9 -16 17
-26 17 -19 0 -19 -16 -17 -655z"/>
<path d="M420 3510 c0 -29 4 -40 15 -40 11 0 15 11 15 40 0 29 -4 40 -15 40
-11 0 -15 -11 -15 -40z"/>
<path d="M3937 3543 c-4 -3 -7 -492 -7 -1085 0 -1043 1 -1078 19 -1078 16 0
19 11 23 88 3 48 4 452 2 897 -1 446 -3 894 -3 998 -1 149 -4 187 -14 187 -8
0 -17 -3 -20 -7z"/>
<path d="M687 3383 c-4 -7 -2 -1505 2 -1547 2 -15 5 -16 14 -7 9 9 13 201 15
786 3 686 2 775 -12 775 -8 0 -17 -3 -19 -7z"/>
<path d="M1499 3388 c-1 -2 -3 -416 -4 -920 l-2 -918 25 0 25 0 -6 113 c-4 61
-7 475 -7 920 0 711 -2 807 -15 807 -8 0 -16 -1 -16 -2z"/>
<path d="M3127 3363 c-4 -3 -7 -397 -7 -874 0 -724 3 -869 14 -878 23 -19 27
153 24 983 -3 743 -5 796 -31 769z"/>
<path d="M416 3314 c-3 -9 -6 -387 -6 -840 l0 -824 27 0 26 0 -6 317 c-4 174
-7 552 -7 840 0 440 -2 523 -14 523 -8 0 -17 -7 -20 -16z"/>
<path d="M4747 3254 c-4 -4 -7 -392 -7 -861 l1 -853 23 0 23 0 -1 857 c-1 766
-3 858 -16 861 -9 1 -19 -1 -23 -4z"/>
<path d="M610 1910 c0 -36 3 -40 25 -40 23 0 25 4 25 40 0 36 -2 40 -25 40
-22 0 -25 -4 -25 -40z"/>
<path d="M4810 1779 c0 -25 33 -22 38 4 2 12 -3 17 -17 17 -15 0 -21 -6 -21
-21z"/>
<path d="M1560 1715 c0 -20 5 -25 25 -25 20 0 25 5 25 25 0 20 -5 25 -25 25
-20 0 -25 -5 -25 -25z"/>
<path d="M756 1714 c-10 -26 -7 -34 14 -34 15 0 20 7 20 25 0 28 -24 34 -34 9z"/>
<path d="M1733 1645 c0 -27 2 -38 4 -22 2 15 2 37 0 50 -2 12 -4 0 -4 -28z"/>
<path d="M4680 1613 c0 -50 3 -63 16 -63 12 0 15 12 13 63 -1 46 -6 64 -16 64
-9 0 -13 -17 -13 -64z"/>
<path d="M480 1620 c0 -27 3 -31 23 -28 16 2 22 10 22 28 0 18 -6 26 -22 28
-20 3 -23 -1 -23 -28z"/>
<path d="M1630 1626 c0 -15 7 -26 18 -29 16 -4 16 -5 0 -6 -11 -1 -18 -9 -18
-21 0 -15 7 -20 26 -20 22 0 25 3 20 23 -3 12 -6 36 -7 52 0 26 -2 27 -9 10
-7 -17 -9 -17 -9 -2 -1 27 -21 20 -21 -7z"/>
<path d="M550 1597 c0 -16 6 -23 20 -23 14 0 20 7 20 23 0 16 -6 23 -20 23
-14 0 -20 -7 -20 -23z"/>
<path d="M1696 1583 c-3 -4 -6 -33 -6 -65 0 -55 1 -58 25 -58 24 0 25 2 25 63
0 55 -2 63 -19 64 -10 1 -22 -1 -25 -4z"/>
<path d="M342 1500 c3 -59 5 -65 26 -68 21 -3 22 0 22 67 0 70 0 71 -25 69
-25 -2 -26 -4 -23 -68z"/>
<path d="M543 1542 c-7 -16 2 -25 27 -27 14 -1 20 5 20 20 0 24 -39 30 -47 7z"/>
<path d="M1840 1515 c0 -16 6 -25 15 -25 9 0 15 9 15 25 0 16 -6 25 -15 25 -9
0 -15 -9 -15 -25z"/>
<path d="M4670 1470 c0 -68 1 -70 25 -70 24 0 25 2 25 70 0 68 -1 70 -25 70
-24 0 -25 -2 -25 -70z"/>
<path d="M3182 1490 c0 -14 2 -19 5 -12 2 6 2 18 0 25 -3 6 -5 1 -5 -13z"/>
<path d="M2780 1430 c0 -68 1 -71 23 -68 20 3 22 8 22 68 0 60 -2 65 -22 68
-22 3 -23 0 -23 -68z"/>
<path d="M2451 1458 c0 -21 4 -38 12 -41 7 -3 5 -6 -5 -6 -11 -1 -18 -9 -18
-21 0 -15 7 -20 25 -20 25 0 25 1 19 58 -8 65 -13 79 -15 36 l-1 -29 -8 30 -8
30 -1 -37z"/>
<path d="M274 1465 c-8 -20 4 -35 27 -35 14 0 19 7 19 25 0 18 -5 25 -20 25
-11 0 -23 -7 -26 -15z"/>
<path d="M3012 1440 c0 -19 2 -27 5 -17 2 9 2 25 0 35 -3 9 -5 1 -5 -18z"/>
<path d="M3053 1415 c0 -33 2 -45 4 -27 2 18 2 45 0 60 -2 15 -4 0 -4 -33z"/>
<path d="M2240 1360 c0 -63 2 -70 20 -70 18 0 20 7 20 70 0 63 -2 70 -20 70
-18 0 -20 -7 -20 -70z"/>
<path d="M3198 1413 c7 -3 16 -2 19 1 4 3 -2 6 -13 5 -11 0 -14 -3 -6 -6z"/>
<path d="M2170 1390 c0 -16 5 -21 23 -18 12 2 22 10 22 18 0 8 -10 16 -22 18
-18 3 -23 -2 -23 -18z"/>
<path d="M4613 1375 c0 -22 2 -30 4 -17 2 12 2 30 0 40 -3 9 -5 -1 -4 -23z"/>
<path d="M210 1385 c0 -11 7 -15 23 -13 12 2 22 8 22 13 0 6 -10 11 -22 13
-16 2 -23 -2 -23 -13z"/>
<path d="M2912 1378 c2 -15 11 -24 26 -26 18 -3 22 1 22 22 0 21 -5 26 -26 26
-21 0 -25 -4 -22 -22z"/>
<path d="M2980 1380 c0 -15 7 -20 25 -20 18 0 25 5 25 20 0 15 -7 20 -25 20
-18 0 -25 -5 -25 -20z"/>
<path d="M2100 1320 c0 -25 4 -30 25 -30 21 0 25 5 25 30 0 25 -4 30 -25 30
-21 0 -25 -5 -25 -30z"/>
<path d="M4602 1313 c2 -10 13 -19 26 -21 17 -3 22 2 22 17 0 16 -6 21 -26 21
-19 0 -25 -5 -22 -17z"/>
<path d="M1290 1250 c0 -25 4 -30 25 -30 21 0 25 5 25 30 0 25 -4 30 -25 30
-21 0 -25 -5 -25 -30z"/>
<path d="M2710 1250 c0 -15 7 -20 25 -20 18 0 25 5 25 20 0 15 -7 20 -25 20
-18 0 -25 -5 -25 -20z"/>
<path d="M2647 1233 c-4 -3 -7 -19 -7 -35 0 -23 4 -28 25 -28 22 0 25 4 25 35
0 27 -4 35 -18 35 -10 0 -22 -3 -25 -7z"/>
<path d="M4540 1205 c0 -22 4 -26 23 -23 14 2 22 10 22 23 0 13 -8 21 -22 23
-19 3 -23 -1 -23 -23z"/>
<path d="M2370 1190 c0 -25 4 -30 25 -30 21 0 25 5 25 30 0 25 -4 30 -25 30
-21 0 -25 -5 -25 -30z"/>
<path d="M1233 1193 c9 -2 23 -2 30 0 6 3 -1 5 -18 5 -16 0 -22 -2 -12 -5z"/>
<path d="M3722 1173 c2 -20 9 -29 26 -31 19 -3 22 1 22 27 0 27 -4 31 -26 31
-22 0 -25 -4 -22 -27z"/>
<path d="M4268 1125 c-6 -29 -2 -35 24 -35 13 0 18 8 18 30 0 39 -35 43 -42 5z"/>
<path d="M3995 1121 c-3 -2 -5 -15 -5 -28 0 -18 5 -23 25 -23 21 0 25 5 25 28
0 21 -5 28 -20 28 -12 0 -23 -2 -25 -5z"/>
<path d="M4072 1089 c-1 -26 -5 -61 -8 -78 -6 -28 -4 -31 20 -31 19 0 26 5 26
20 0 10 -6 23 -14 27 -9 5 -16 28 -19 58 l-3 50 -2 -46z"/>
<path d="M3330 1010 c0 -5 5 -10 10 -10 6 0 10 5 10 10 0 6 -4 10 -10 10 -5 0
-10 -4 -10 -10z"/>
<path d="M1020 910 c0 -36 3 -40 25 -40 23 0 25 4 25 40 0 36 -2 40 -25 40
-22 0 -25 -4 -25 -40z"/>
<path d="M4400 860 c0 -89 0 -90 25 -90 25 0 25 1 25 90 0 89 0 90 -25 90 -25
0 -25 -1 -25 -90z"/>
<path d="M1090 860 c0 -23 4 -30 20 -30 16 0 20 7 20 30 0 23 -4 30 -20 30
-16 0 -20 -7 -20 -30z"/>
<path d="M4330 770 c0 -15 7 -20 25 -20 18 0 25 5 25 20 0 15 -7 20 -25 20
-18 0 -25 -5 -25 -20z"/>
<path d="M3533 700 c-1 -36 2 -56 4 -45 3 11 11 24 19 28 18 10 18 37 0 37 -8
0 -17 10 -19 23 -2 12 -4 -7 -4 -43z"/>
<path d="M1975 487 c0 -217 2 -252 15 -252 13 0 15 35 15 252 0 218 -2 253
-15 253 -13 0 -15 -35 -15 -253z"/>
<path d="M3450 373 c0 -46 13 -68 34 -60 11 5 16 19 16 52 0 41 -2 45 -25 45
-22 0 -25 -4 -25 -37z"/>
</g>
</svg>
